<svg xmlns="http://www.w3.org/2000/svg" xmlns:xlink="http://www.w3.org/1999/xlink" viewBox="0,0,256,256" width="50px" height="50px"><g fill="#bb9cf6" fill-rule="nonzero" stroke="none" stroke-width="1" stroke-linecap="butt" stroke-linejoin="miter" stroke-miterlimit="10" stroke-dasharray="" stroke-dashoffset="0" font-family="none" font-weight="none" font-size="none" text-anchor="none" style="mix-blend-mode: normal"><g transform="scale(8,8)"><path d="M16,5c-4.98828,0 -5,2 -5,2v4h6v1h-10c0,0 -3,-0.46094 -3,5c0,5.46094 3,5 3,5h3v-1.625c0,-2.41016 1.96484,-4.375 4.375,-4.375h3.25c1.85938,0 3.375,-0.51562 3.375,-2.375v-6.625c0,0 -0.01172,-2 -5,-2zM13,7c0.55078,0 1,0.44922 1,1c0,0.55078 -0.44922,1 -1,1c-0.55078,0 -1,-0.44922 -1,-1c0,-0.55078 0.44922,-1 1,-1zM22,11v2.625c0,2.41016 -1.96484,3.375 -4.375,3.375h-3.25c-1.85937,0 -3.375,1.51563 -3.375,3.375v5.625c0,0 0.0625,2 5,2c4.9375,0 5,-2 5,-2v-4h-6v-1h10c0,0 3,0.50391 3,-5c0,-5.50391 -3,-5 -3,-5zM19,24c0.55078,0 1,0.44922 1,1c0,0.55078 -0.44922,1 -1,1c-0.55078,0 -1,-0.44922 -1,-1c0,-0.55078 0.44922,-1 1,-1z"></path></g></g></svg>