<svg xmlns="http://www.w3.org/2000/svg" xmlns:xlink="http://www.w3.org/1999/xlink" viewBox="0,0,256,256" width="50px" height="50px"><g fill="#bb9cf6" fill-rule="nonzero" stroke="none" stroke-width="1" stroke-linecap="butt" stroke-linejoin="miter" stroke-miterlimit="10" stroke-dasharray="" stroke-dashoffset="0" font-family="none" font-weight="none" font-size="none" text-anchor="none" style="mix-blend-mode: normal"><g transform="scale(8.53333,8.53333)"><path d="M6,4c-1.105,0 -2,0.895 -2,2v18c0,1.105 0.895,2 2,2h18c1.105,0 2,-0.895 2,-2v-18c0,-1.105 -0.895,-2 -2,-2zM8,9.99219h3.97852c1.969,0 3.31641,1.34694 3.31641,3.33594c0,1.955 -1.39658,3.29492 -3.39258,3.29492h-2.13867v3.23438h-1.76367zM9.76367,11.46875v3.69141h1.74414c1.258,0 1.99609,-0.65603 1.99609,-1.83203c0,-1.209 -0.71923,-1.85937 -1.99023,-1.85937zM19.20703,12.22656c1.777,0 2.89262,0.78649 3.01563,2.14649h-1.5918c-0.123,-0.526 -0.62302,-0.86133 -1.41602,-0.86133c-0.772,0 -1.35352,0.37016 -1.35352,0.91016c0,0.424 0.35542,0.68352 1.10742,0.85352l1.31836,0.30078c1.429,0.321 2.0918,0.93711 2.0918,2.03711c0,1.437 -1.31955,2.39453 -3.18555,2.39453c-1.866,0 -3.04188,-0.80797 -3.17187,-2.16797h1.67578c0.164,0.554 0.68911,0.88281 1.53711,0.88281c0.854,0 1.44922,-0.37569 1.44922,-0.92969c0,-0.424 -0.32025,-0.69161 -1.03125,-0.84961l-1.32617,-0.30664c-1.436,-0.328 -2.11133,-0.99114 -2.11133,-2.11914c0,-1.354 1.22819,-2.29102 2.99219,-2.29102z"></path></g></g></svg>