<svg xmlns="http://www.w3.org/2000/svg" xmlns:xlink="http://www.w3.org/1999/xlink" viewBox="0,0,256,256" width="50px" height="50px"><g fill="none" fill-rule="nonzero" stroke="none" stroke-width="1" stroke-linecap="butt" stroke-linejoin="miter" stroke-miterlimit="10" stroke-dasharray="" stroke-dashoffset="0" font-family="none" font-weight="none" font-size="none" text-anchor="none" style="mix-blend-mode: normal"><g transform="scale(5.33333,5.33333)"><path d="M44.86,9.976l-19.837,35.472c-0.41,0.732 -1.462,0.737 -1.878,0.008l-20.23,-35.477c-0.453,-0.794 0.226,-1.756 1.126,-1.595l19.859,3.55c0.127,0.023 0.256,0.022 0.383,-0.001l19.443,-3.544c0.897,-0.164 1.579,0.791 1.134,1.587z" fill="#bb9cf6"></path><path d="M33.574,3.01l-14.555,2.852c-0.239,0.047 -0.416,0.25 -0.431,0.493l-0.895,15.121c-0.021,0.356 0.306,0.633 0.654,0.552l4.052,-0.935c0.379,-0.087 0.722,0.246 0.644,0.628l-1.204,5.895c-0.081,0.397 0.291,0.736 0.679,0.618l2.503,-0.76c0.388,-0.118 0.761,0.222 0.679,0.62l-1.913,9.26c-0.12,0.579 0.651,0.895 0.972,0.398l0.215,-0.332l11.86,-23.669c0.199,-0.396 -0.144,-0.848 -0.579,-0.764l-4.171,0.805c-0.392,0.076 -0.725,-0.289 -0.615,-0.673l2.722,-9.438c0.11,-0.382 -0.224,-0.748 -0.617,-0.671z" fill="#d8c6fa"></path></g></g></svg>